<?xml version="1.0" encoding="utf-8" ?><svg xmlns="http://www.w3.org/2000/svg" xmlns:xlink="http://www.w3.org/1999/xlink" width="480" height="480" viewBox="0 0 1024 1024" preserveAspectRatio="xMidYMid meet"><path d="M477.35 296.263C477.678 296.342 478.011 296.404 478.334 296.5C488.661 299.565 516.429 348.023 521.246 358.259C528.528 362.834 555.429 321.563 556.315 357.534C568.914 351.242 588.753 342.43 602.904 342.182C612.357 342.016 603.273 366.519 601.878 370.844C608.831 369.635 622.351 366.769 629.018 367.876C636.444 369.108 630.667 381.894 629.017 385.929C644.731 381.135 710.259 366.572 722.248 372.867C723.753 373.658 724.791 374.702 725.237 376.385C728.973 390.488 681.293 449.021 672.011 463.585C680.641 466.767 693.99 471.016 701.238 476.699C702.158 477.421 703.385 479.608 703.997 480.687C700.235 492.595 687.676 498.335 679.715 507.07C683.165 510.376 692.698 518.181 692.811 523.004C692.997 530.898 668.254 539.568 667.137 542.023C664.527 547.761 660.67 563.789 658.218 571.105C645.79 608.182 624.548 634.504 593.731 657.931C591.284 659.707 588.782 661.407 586.23 663.028C568.907 674.117 549.706 681.95 529.57 686.143C522.968 687.566 516.255 688.399 509.641 689.755C503.231 691.069 497.05 693.333 490.657 694.72C473.502 698.444 454.829 698.432 437.556 695.236C428.922 693.638 420.054 690.981 412.036 687.387C406.652 684.973 401.331 682.024 395.756 680.098C388.638 677.638 381.007 677.418 373.693 675.774C347.179 669.815 324.653 651.721 310.256 628.993C307.779 625.082 301.491 615.879 303.066 611.048C303.466 609.822 304.085 608.878 305.246 608.273C307.914 606.884 336.385 616.359 341.004 617.619C323.405 570.131 327.54 529.269 357.371 487.611C355.109 472.669 356.795 459.624 366.67 447.706C382.524 428.574 401.38 425.906 424.63 423.804C428.169 417.968 440.328 404.893 445.52 399.064C448.38 368.924 457.964 320.049 477.35 296.263ZM346.578 605.535C348.309 611.951 350.279 619.435 356.707 622.64C362.16 625.359 372.582 628.066 378.623 629.216C392.54 631.435 402.269 629.581 415.767 625.908C404.485 622.367 395.985 618.497 389.532 607.989C386.949 603.784 387.168 603.671 382.203 604.286C369.594 604.965 359.192 605.435 346.578 605.535Z"/><path fill="#785F92" d="M479.245 306.938C487.237 320.689 497.25 334.097 505.263 347.96C508.169 352.988 511.421 357.725 513.761 363.081L514.268 364.426C512.771 366.73 498.808 374.728 495.089 377.575C497.167 377.008 501.421 375.741 503.344 375.485C529.217 368.947 526.826 368.131 547.728 352.789C548.281 359.369 548.534 362.326 550.582 368.522C564.729 364.114 578.918 357.107 594.122 352.228C596.333 351.642 595.501 351.397 597.009 352.171C599.854 358.634 586.616 376.231 595.713 379.057C597.523 379.619 601.605 380.116 603.696 380.251C606.979 379.31 616.315 377.923 620.054 377.287L621.058 377.367C622.153 379.864 620.839 383.141 619.863 385.682C618.523 389.093 617.086 392.466 615.554 395.795C616.531 396.66 617.621 397.94 619.003 397.815C627.151 394.716 635.952 393.117 644.411 391.088C666.2 385.863 686.008 382.653 708.275 380.923C710.633 380.536 711.438 380.257 713.737 380.629C714.317 381.125 714.603 381.115 714.63 381.958C715.025 394.335 666.622 454.429 657.43 469.921C661.268 483.029 660.947 488.997 661.044 502.578C661.264 533.448 653.894 567.538 639.136 594.837C619.446 631.256 580.378 663.212 540.6 674.926C538.383 675.578 536.156 676.197 533.92 676.783C539.609 671.11 546.648 665.538 552.684 659.977C570.179 643.858 578.743 627.079 587.041 605.263C603.418 600.142 611.303 597.768 622.226 584.104C613.922 587.748 601.284 594.667 593.642 597.08C572.859 603.645 548.83 599.718 526.322 601.395C528.039 596.64 529.139 593.454 530.371 588.489C527.018 586.79 520.357 584.029 519.051 580.615C536.276 565.007 524.572 569.294 525.467 560.036C530.107 558.985 535.976 560.222 539.641 559.314C558.392 554.666 576.277 541.26 592.425 531.1C596.607 528.006 598.727 525.442 601.903 521.392C598.703 522.437 590.231 525.849 587.632 523.981C588.551 516.717 600.898 504.367 596.905 498.887C593.161 497.326 578.028 502.777 570.916 503.142C559.427 503.731 551.286 503.957 539.543 502.448C508.109 498.411 475.373 487.797 453.161 464.159C447.984 458.65 444.295 449.092 439.596 443.012C438.187 441.187 436.262 441.383 433.886 441.183C430.823 442.44 426.995 443.546 423.78 444.554C432.579 423.064 452.447 402.844 470.991 389.085C467.46 388.773 465.712 389.114 462.39 390.426C460.401 392.094 457.67 393.591 455.222 394.44C458.481 361.365 466.207 337.671 479.245 306.938Z"/><path fill="#52386F" d="M708.275 380.923C710.633 380.536 711.438 380.257 713.737 380.629C714.317 381.125 714.603 381.115 714.63 381.958C715.025 394.335 666.622 454.429 657.43 469.921C661.268 483.029 660.947 488.997 661.044 502.578C661.264 533.448 653.894 567.538 639.136 594.837C619.446 631.256 580.378 663.212 540.6 674.926C538.383 675.578 536.156 676.197 533.92 676.783C539.609 671.11 546.648 665.538 552.684 659.977C570.179 643.858 578.743 627.079 587.041 605.263C603.418 600.142 611.303 597.768 622.226 584.104C613.922 587.748 601.284 594.667 593.642 597.08C572.859 603.645 548.83 599.718 526.322 601.395C528.039 596.64 529.139 593.454 530.371 588.489C527.018 586.79 520.357 584.029 519.051 580.615C520.419 580.795 523.139 581.805 524.557 582.337C545.987 590.389 575.469 589.27 595.883 578.711C616.92 567.83 626.381 555.056 633.566 532.857C634.407 535.661 634.84 538.556 635.359 541.443C642.68 519.829 645.783 500.001 644.69 477.192C644.161 466.151 640.419 445.276 648.538 436.847C662.452 422.402 679.425 410.527 694.975 397.933C700.661 393.329 707.404 388.414 711.936 382.688L712.755 381.481C711.704 380.652 709.904 380.944 708.275 380.923Z"/><path fill="#B5A2C5" d="M479.245 306.938C487.237 320.689 497.25 334.097 505.263 347.96C508.169 352.988 511.421 357.725 513.761 363.081C508.571 362.037 485.574 325.963 480.371 319.663C471.941 340.349 464.36 368.191 462.39 390.426C460.401 392.094 457.67 393.591 455.222 394.44C458.481 361.365 466.207 337.671 479.245 306.938Z"/><path fill="#B5A2C5" d="M708.275 380.923C709.904 380.944 711.704 380.652 712.755 381.481L711.936 382.688L661.734 395.224C650.663 398.025 637.806 401.822 626.672 403.225C623.453 401.602 621.486 400.616 619.003 397.815C627.151 394.716 635.952 393.117 644.411 391.088C666.2 385.863 686.008 382.653 708.275 380.923Z"/><path fill="#B5A2C5" d="M594.122 352.228C593.569 354.619 592.31 355.518 590.499 357.341C579.544 362.552 568.915 369.032 557.511 373.036C549.366 375.895 546.988 372.846 545.319 365.285C545.088 364.23 544.87 363.172 544.665 362.112L543.983 362.501C539.067 365.358 534.966 369.218 530.458 372.584C524.624 376.939 509.369 380.087 503.344 375.485C529.217 368.947 526.826 368.131 547.728 352.789C548.281 359.369 548.534 362.326 550.582 368.522C564.729 364.114 578.918 357.107 594.122 352.228Z"/><path fill="#B5A2C5" d="M470.991 389.085C473.912 388.311 476.838 387.556 479.769 386.818C464.212 402.364 444.155 421.09 433.886 441.183C430.823 442.44 426.995 443.546 423.78 444.554C432.579 423.064 452.447 402.844 470.991 389.085Z"/><path fill="#B5A2C5" d="M592.425 531.1C593.06 541.044 542.836 575.012 525.467 560.036C530.107 558.985 535.976 560.222 539.641 559.314C558.392 554.666 576.277 541.26 592.425 531.1Z"/><path fill="#52386F" d="M594.122 352.228C596.333 351.642 595.501 351.397 597.009 352.171C599.854 358.634 586.616 376.231 595.713 379.057C597.523 379.619 601.605 380.116 603.696 380.251C599.993 380.693 593.348 382.526 589.368 383.426C587.315 382.182 586.679 381.711 584.88 380.122C584.823 370.327 586.543 366.255 590.499 357.341C592.31 355.518 593.569 354.619 594.122 352.228Z"/><path fill="#52386F" d="M620.054 377.287L621.058 377.367C622.153 379.864 620.839 383.141 619.863 385.682C618.523 389.093 617.086 392.466 615.554 395.795C612.119 393.24 611.366 392.207 609.525 388.34C612.956 384.599 617.017 381.378 620.054 377.287Z"/><path d="M602.593 432.915C603.324 432.977 603.923 433.179 604.646 433.362C606.69 436.05 602.196 438.649 600.137 440.084C600.543 444.083 601.001 448.021 601.077 452.023C601.581 478.399 579.201 502.483 551.847 494.288C545.288 492.323 541.898 490.273 536.3 486.429C532.924 483.675 530.454 480.128 527.459 477.036C525.934 475.461 523.997 475.982 522.457 473.721C522.514 473.568 522.552 473.406 522.628 473.261C525.995 466.891 591.339 437.735 602.593 432.915Z"/><path fill="#F88F4D" d="M564.157 456.196C574.011 451.982 586.11 445.606 595.919 440.731C596.772 455.64 596.436 469.69 585.817 481.49C580.512 487.492 573.007 491.095 565.006 491.482C562.824 491.596 560.682 491.398 558.51 491.206C545.574 488.568 541.908 486.082 532.625 476.612C531.518 475.237 531.766 475.988 531.728 474.328C534.542 469.381 548.087 463.926 553.718 461.549C553.482 465.711 553.734 469.286 552.952 473.448C553.147 474.955 554.116 477.465 555.54 478.189C561.134 477.873 563.088 468 563.615 463.662C563.528 460.586 563.745 459.175 564.157 456.196Z"/><path fill="#DD403E" d="M564.157 456.196C574.011 451.982 586.11 445.606 595.919 440.731C596.772 455.64 596.436 469.69 585.817 481.49C580.512 487.492 573.007 491.095 565.006 491.482C562.824 491.596 560.682 491.398 558.51 491.206C563.801 490.806 568.826 488.728 572.854 485.273C582.252 477.322 584.835 465.619 585.682 453.909C578.001 456.544 570.077 458.748 563.615 463.662C563.528 460.586 563.745 459.175 564.157 456.196Z"/><path fill="#DD403E" d="M532.625 476.612C531.518 475.237 531.766 475.988 531.728 474.328C534.542 469.381 548.087 463.926 553.718 461.549C553.482 465.711 553.734 469.286 552.952 473.448C551.833 471.402 552.158 471.103 550.527 470.512C546.06 470.939 536.537 474.382 532.625 476.612Z"/><path d="M472.18 398.677C473.459 399.494 474.821 400.54 475.438 401.951C479.332 410.861 482.484 420.923 485.719 430.09C490.047 442.354 495.219 453.811 498.221 466.44C492.419 466.415 485.643 467.91 479.861 469.008C454.212 464.467 449.481 443.118 458.852 421.948C461.808 415.27 466.203 410.966 471.126 405.781C471.376 402.937 471.507 401.525 472.18 398.677Z"/><path fill="#F88F4D" d="M461.597 427.3C463.703 419.829 467.465 414.359 473.657 409.616C476.899 418.368 480.681 428.368 483.054 437.411L479.878 442.957C478.737 446.698 476.574 454.282 480.028 457.132C482.556 457.269 483.2 456.355 484.904 454.601C484.951 453.01 484.795 452.78 485.768 451.528C489.95 450.692 495.426 458.776 489.071 462.976C460.983 466.97 455.929 450.673 461.597 427.3Z"/><path fill="#DD403E" d="M461.597 427.3C463.703 419.829 467.465 414.359 473.657 409.616C476.899 418.368 480.681 428.368 483.054 437.411L479.878 442.957C477.133 434.762 473.76 428.694 469.776 421.059C467.358 423.32 464.487 425.694 461.597 427.3Z"/><path fill="#DD403E" d="M484.904 454.601C484.951 453.01 484.795 452.78 485.768 451.528C489.95 450.692 495.426 458.776 489.071 462.976C487.986 459.415 487.7 456.951 484.904 454.601Z"/><path fill="#B5A2C5" d="M548.388 438.913C549.699 438.99 549.218 438.928 550.48 439.555L550.882 440.759C549.54 446.652 539.648 452.454 534.691 455.597C524.229 452.855 546.248 440.116 548.388 438.913Z"/><path fill="#252525" d="M412.106 459.878C420.837 454.841 426.673 452.626 436.075 449.585L439.238 455.794C441.565 459.971 444.905 465.61 448.153 469.187C463.55 486.147 487.02 496.938 508.733 503.263C527.556 508.746 551.705 512.368 571.056 509.972C574.57 517.879 575.864 522.754 578.069 530.938C538.026 546.359 496.802 558.513 454.799 567.283C449.944 561.582 445.913 556.154 439.046 552.698C413.705 539.944 386.316 555.545 383.257 583.888C372.185 585.001 357.991 586.718 347.114 586.507L341.211 586.476C337.539 553.115 341.854 524.045 362.068 496.31C364.382 498.393 365.289 499.325 368.098 500.833C372.617 501.071 376.505 493.738 378.519 490.403C392.126 496.924 394.268 493.802 396.703 479.938C408.838 480.051 415.725 480.74 412.591 465.567C412.512 463.75 412.274 461.709 412.106 459.878Z"/><path fill="#8B8A8A" d="M362.068 496.31C364.382 498.393 365.289 499.325 368.098 500.833C367.148 504.83 361.39 511.573 359.203 516.356C348.209 540.395 344.8 560.629 347.114 586.507L341.211 586.476C337.539 553.115 341.854 524.045 362.068 496.31Z"/><path fill="#8B8A8A" d="M412.106 459.878C420.837 454.841 426.673 452.626 436.075 449.585L439.238 455.794C430.573 458.099 421.768 460.81 414.167 465.717C413.651 466.05 413.034 465.812 412.591 465.567C412.512 463.75 412.274 461.709 412.106 459.878Z"/><path fill="#DD403E" d="M397.522 493.021C399.804 488.934 399.488 484.291 405.785 482.91C416.293 480.604 447.764 470.872 453.415 484.656C454.779 487.985 450.14 504.779 447.434 507.965C443.199 514.446 432.586 516.114 425.467 518.489C429.018 522.411 444.63 538.183 446.106 541.534C444.973 545.438 439.565 545.717 436.1 546.152C427.687 537.376 420.101 528.824 411.393 520.205C409.628 520.826 402.531 523.245 400.968 523.631C399.363 524.027 396.675 541.197 396.283 543.531C395.521 548.06 393.993 558.641 387.623 557.429C386.776 557.229 385.778 556.669 385.568 555.722C384.361 547.117 389.5 532.05 390.723 523.884C387.497 526.917 385.198 528.985 381.482 531.31C368.427 539.477 363.208 529.679 367.691 517.514C370.371 510.242 377.494 499.754 384.942 496.951C389.091 495.389 392.384 496.118 397.205 493.656L397.522 493.021Z"/><path fill="#8B8A8A" d="M390.723 523.884C387.497 526.917 385.198 528.985 381.482 531.31C368.427 539.477 363.208 529.679 367.691 517.514C370.371 510.242 377.494 499.754 384.942 496.951C389.091 495.389 392.384 496.118 397.205 493.656C395.566 503.508 391.999 513.546 390.887 523.048L390.723 523.884Z"/><path fill="#E8908E" d="M397.522 493.021C406.714 500.36 396.855 516.497 390.887 523.048C391.999 513.546 395.566 503.508 397.205 493.656L397.522 493.021Z"/><path fill="#252525" d="M432.369 487.205C445.139 486.002 438.846 498.254 435.549 504.552C428.234 507.112 419.503 508.988 411.883 510.815C408.742 511.509 406.281 511.865 403.106 512.304C404.657 505.3 406.263 498.309 407.925 491.33C414.902 489.305 425.094 488.007 432.369 487.205Z"/><path fill="#8B8A8A" d="M364.229 541.337C375.048 542.094 369.184 550.046 365.17 554.648C363.287 555.118 361.979 555.114 360.286 554.12C357.535 550.365 361.893 544.382 364.229 541.337Z"/><path fill="#FEFEFE" d="M510.488 577.011C509.929 580.57 508.883 584.244 511.719 587.024C515.138 588.493 518.683 589.96 522.068 591.476L520.057 597.804C515.748 613.561 531.513 607.526 540.604 607.383C552.986 607.773 564.484 608.071 576.873 608.085C563.716 640.689 542.069 665.461 509.202 679.362C480.077 691.637 447.287 691.939 417.941 680.204C413.742 678.489 410.459 676.789 406.495 674.608C417.09 670.284 419.646 668.176 428.578 660.816C440.227 650.765 449.55 632.561 446.521 616.931C454.983 604.302 457.938 605.882 459.792 588.739C462.042 588.173 464.522 587.668 466.805 587.22C481.518 584.335 495.925 580.531 510.488 577.011Z"/><path fill="#B5B9C5" d="M540.604 607.383C552.986 607.773 564.484 608.071 576.873 608.085C563.716 640.689 542.069 665.461 509.202 679.362C480.077 691.637 447.287 691.939 417.941 680.204C413.742 678.489 410.459 676.789 406.495 674.608C417.09 670.284 419.646 668.176 428.578 660.816C441.19 664.944 473.277 658.576 486.048 653.488C506.654 645.278 531.442 628.215 540.604 607.383Z"/><path fill="#B5B9C5" d="M511.719 587.024C515.138 588.493 518.683 589.96 522.068 591.476L520.057 597.804C517.224 594.715 513.655 590.752 511.719 587.024Z"/><path fill="#52386F" d="M319.219 625.386C317.731 623.583 317.173 623.144 316.455 620.993L316.909 620.411L318.432 620.805C333.06 623.942 347.457 625.909 361.105 632.356C366.798 635.045 376.861 636.722 383.069 637.088C401.076 637.518 407.155 636.107 424.523 630.647L440.445 623.442C436.735 640.7 428.441 653.986 412.874 663.098C381.727 681.33 334.557 653.67 319.219 625.386Z"/><path fill="#785F92" d="M319.219 625.386C317.731 623.583 317.173 623.144 316.455 620.993L316.909 620.411L318.432 620.805C333.06 623.942 347.457 625.909 361.105 632.356C366.798 635.045 376.861 636.722 383.069 637.088C401.076 637.518 407.155 636.107 424.523 630.647C423.407 637.167 408.309 642.46 402.698 644.391C379.994 652.203 354.545 647.52 333.965 635.98C328.814 633.093 324.853 627.974 319.219 625.386Z"/><path fill="#B5A2C5" d="M318.432 620.805C333.06 623.942 347.457 625.909 361.105 632.356C366.798 635.045 376.861 636.722 383.069 637.088L383.607 637.54L383.417 638.115C371.251 641.388 324.121 629.303 318.432 620.805Z"/><path fill="#FEFEFE" d="M418.58 562.179C432.262 560.599 444.658 570.345 446.352 584.013C448.046 597.681 438.403 610.158 424.75 611.965C410.935 613.794 398.278 604.012 396.564 590.182C394.85 576.353 404.737 563.777 418.58 562.179Z"/><path fill="#B5B9C5" d="M428.144 574.169L428.907 572.537C432.48 574.686 434.258 576.209 436.22 580.053C449.129 597.268 417.04 623.015 405.654 592.158L406.015 592.137C409.903 597.589 409.936 597.873 416.1 600.817C417.132 601.084 418.701 601.393 419.751 601.406C423.692 601.414 427.478 599.869 430.287 597.104C433.243 594.115 434.807 590.021 434.594 585.822C434.352 580.581 431.894 577.448 428.144 574.169Z"/><defs><linearGradient id="gradient_0" gradientUnits="userSpaceOnUse" x1="434.54654" y1="594.34979" x2="420.91455" y2="583.82288"><stop offset="0" stop-color="#717171"/><stop offset="1" stop-color="#949192"/></linearGradient></defs><path fill="url(#gradient_0)" d="M428.144 574.169L428.907 572.537C432.48 574.686 434.258 576.209 436.22 580.053C436.545 583.059 436.927 585.786 436.668 588.814C435.864 598.195 425.748 606.277 416.577 601.688L416.1 600.817C417.132 601.084 418.701 601.393 419.751 601.406C423.692 601.414 427.478 599.869 430.287 597.104C433.243 594.115 434.807 590.021 434.594 585.822C434.352 580.581 431.894 577.448 428.144 574.169Z"/><path fill="#B5B9C5" d="M428.144 574.169C419.338 569.779 415.775 572.105 408.449 577.149L408.407 576.37C413.028 570.255 422.24 569.655 428.907 572.537L428.144 574.169Z"/><path fill="#785F92" d="M367.382 488.53C354.597 463.31 387.241 434.372 410.527 433.542C413.624 433.431 416.11 432.089 418.78 434.112L418.961 435.513C414.883 448.855 406.762 448.655 405.158 465.008L406.256 474.291C391.431 471.497 391.166 472.801 388.012 487.063C384.6 485.158 379.716 482.234 376.293 480.641C374.376 483.053 370.561 489.04 368.058 489.381L367.382 488.53Z"/><path fill="#B5A2C5" d="M367.382 488.53C354.597 463.31 387.241 434.372 410.527 433.542C413.624 433.431 416.11 432.089 418.78 434.112L418.961 435.513C418.194 435.813 415.612 436.767 415.012 437.088C400.552 440.341 384.254 446.705 375.928 459.727C373.647 463.317 371.972 467.257 370.971 471.391C369.837 475.917 369.927 486.814 367.382 488.53Z"/><path fill="#52386F" d="M415.012 437.088C415.612 436.767 418.194 435.813 418.961 435.513C414.883 448.855 406.762 448.655 405.158 465.008C396.494 452.127 408.307 445.2 415.012 437.088Z"/><path fill="#52386F" d="M666.438 471.253C675.483 474.292 684.734 478.157 693.459 482.023C686.876 488.554 672.308 497.811 671.454 507.567C671.139 511.157 673.296 513.24 675.548 515.639L683.478 522.739C678.496 525.808 673.297 528.346 668.033 530.872C669.184 509.526 668.07 492.425 666.438 471.253Z"/><path fill="#252525" d="M562.627 540.699L562.382 541.496C550.573 549.468 543.286 552.315 529.389 551.939L529.455 551.285C539.691 547.605 552.191 543.871 562.627 540.699Z"/><path fill="#8B8A8A" d="M341.922 590.085L348.533 589.907L352.38 602.122C350.099 601.96 347.643 601.672 345.35 601.45L341.922 590.085Z"/></svg>